<svg width="28" height="14" viewBox="0 0 28 14" fill="none" xmlns="http://www.w3.org/2000/svg">
<path fill-rule="evenodd" clip-rule="evenodd" d="M0 1.4C0 0.626801 0.626801 0 1.4 0H26.6C27.3732 0 28 0.626801 28 1.4C28 2.1732 27.3732 2.8 26.6 2.8H1.4C0.626801 2.8 0 2.1732 0 1.4ZM5.6 7C5.6 6.2268 6.2268 5.6 7 5.6H26.6C27.3732 5.6 28 6.2268 28 7C28 7.7732 27.3732 8.4 26.6 8.4H7C6.2268 8.4 5.6 7.7732 5.6 7ZM0 12.6C0 11.8268 0.626801 11.2 1.4 11.2H26.6C27.3732 11.2 28 11.8268 28 12.6C28 13.3732 27.3732 14 26.6 14H1.4C0.626801 14 0 13.3732 0 12.6Z" fill="black"/>
</svg>
